<mxfile host="app.diagrams.net" agent="Mozilla/5.0 (Windows NT 10.0; Win64; x64) AppleWebKit/537.36 (KHTML, like Gecko) Chrome/135.0.0.0 Safari/537.36" version="26.2.13">
  <diagram name="Page-1" id="Jheeksck0w23O_Lzc13A">
    <mxGraphModel dx="874" dy="2085" grid="1" gridSize="10" guides="1" tooltips="1" connect="1" arrows="1" fold="1" page="1" pageScale="1" pageWidth="1169" pageHeight="1654" math="0" shadow="0">
      <root>
        <mxCell id="0" />
        <mxCell id="1" parent="0" />
        <mxCell id="H48hmFiYQyoYzxlyVc5z-39" style="edgeStyle=orthogonalEdgeStyle;rounded=0;orthogonalLoop=1;jettySize=auto;html=1;entryX=0.5;entryY=0;entryDx=0;entryDy=0;fillColor=#fff2cc;strokeColor=#d6b656;" parent="1" source="H48hmFiYQyoYzxlyVc5z-2" target="H48hmFiYQyoYzxlyVc5z-6" edge="1">
          <mxGeometry relative="1" as="geometry" />
        </mxCell>
        <mxCell id="H48hmFiYQyoYzxlyVc5z-43" style="edgeStyle=orthogonalEdgeStyle;rounded=0;orthogonalLoop=1;jettySize=auto;html=1;fillColor=#fff2cc;strokeColor=#d6b656;" parent="1" source="H48hmFiYQyoYzxlyVc5z-2" target="H48hmFiYQyoYzxlyVc5z-41" edge="1">
          <mxGeometry relative="1" as="geometry">
            <Array as="points">
              <mxPoint x="330" y="130" />
              <mxPoint x="330" y="130" />
            </Array>
          </mxGeometry>
        </mxCell>
        <mxCell id="H48hmFiYQyoYzxlyVc5z-46" style="edgeStyle=orthogonalEdgeStyle;rounded=0;orthogonalLoop=1;jettySize=auto;html=1;entryX=0.75;entryY=1;entryDx=0;entryDy=0;fillColor=#fff2cc;strokeColor=#d6b656;" parent="1" source="H48hmFiYQyoYzxlyVc5z-2" target="H48hmFiYQyoYzxlyVc5z-44" edge="1">
          <mxGeometry relative="1" as="geometry">
            <Array as="points">
              <mxPoint x="513" y="100" />
            </Array>
          </mxGeometry>
        </mxCell>
        <mxCell id="H48hmFiYQyoYzxlyVc5z-2" value="P1.6: External Service Integration" style="ellipse;whiteSpace=wrap;html=1;aspect=fixed;fillColor=#dae8fc;strokeColor=#6c8ebf;fontStyle=1" parent="1" vertex="1">
          <mxGeometry x="370" y="70" width="80" height="80" as="geometry" />
        </mxCell>
        <mxCell id="H48hmFiYQyoYzxlyVc5z-16" style="edgeStyle=orthogonalEdgeStyle;rounded=0;orthogonalLoop=1;jettySize=auto;html=1;entryX=0;entryY=0.5;entryDx=0;entryDy=0;fillColor=#fff2cc;strokeColor=#d6b656;" parent="1" source="HUWv6nAgPmBTQmqejDX9-2" target="H48hmFiYQyoYzxlyVc5z-14" edge="1">
          <mxGeometry relative="1" as="geometry" />
        </mxCell>
        <mxCell id="H48hmFiYQyoYzxlyVc5z-3" value="&#xa;P1.1: User Authentication&#xa;&#xa;" style="ellipse;whiteSpace=wrap;html=1;aspect=fixed;fillColor=#dae8fc;strokeColor=#6c8ebf;fontStyle=1" parent="1" vertex="1">
          <mxGeometry x="585" y="-10" width="80" height="80" as="geometry" />
        </mxCell>
        <mxCell id="H48hmFiYQyoYzxlyVc5z-67" style="edgeStyle=orthogonalEdgeStyle;rounded=0;orthogonalLoop=1;jettySize=auto;html=1;fillColor=#fff2cc;strokeColor=#d6b656;" parent="1" source="H48hmFiYQyoYzxlyVc5z-4" target="H48hmFiYQyoYzxlyVc5z-66" edge="1">
          <mxGeometry relative="1" as="geometry" />
        </mxCell>
        <mxCell id="H48hmFiYQyoYzxlyVc5z-4" value="&#xa;P1.5: Review Management&#xa;&#xa;" style="ellipse;whiteSpace=wrap;html=1;aspect=fixed;fillColor=#dae8fc;strokeColor=#6c8ebf;fontStyle=1" parent="1" vertex="1">
          <mxGeometry x="230" y="-140" width="80" height="80" as="geometry" />
        </mxCell>
        <mxCell id="H48hmFiYQyoYzxlyVc5z-51" style="edgeStyle=orthogonalEdgeStyle;rounded=0;orthogonalLoop=1;jettySize=auto;html=1;entryX=0.75;entryY=0;entryDx=0;entryDy=0;fillColor=#fff2cc;strokeColor=#d6b656;" parent="1" source="H48hmFiYQyoYzxlyVc5z-5" target="H48hmFiYQyoYzxlyVc5z-49" edge="1">
          <mxGeometry relative="1" as="geometry" />
        </mxCell>
        <mxCell id="HUWv6nAgPmBTQmqejDX9-5" style="edgeStyle=orthogonalEdgeStyle;rounded=0;orthogonalLoop=1;jettySize=auto;html=1;entryX=0.75;entryY=0;entryDx=0;entryDy=0;fillColor=#fff2cc;strokeColor=#d6b656;" edge="1" parent="1" source="H48hmFiYQyoYzxlyVc5z-5" target="HUWv6nAgPmBTQmqejDX9-2">
          <mxGeometry relative="1" as="geometry" />
        </mxCell>
        <mxCell id="H48hmFiYQyoYzxlyVc5z-5" value="&#xa;P1.3: Browse Activities &amp;amp; Tours&#xa;&#xa;" style="ellipse;whiteSpace=wrap;html=1;aspect=fixed;fillColor=#dae8fc;strokeColor=#6c8ebf;fontStyle=1" parent="1" vertex="1">
          <mxGeometry x="750" y="60" width="80" height="80" as="geometry" />
        </mxCell>
        <mxCell id="H48hmFiYQyoYzxlyVc5z-24" style="edgeStyle=orthogonalEdgeStyle;rounded=0;orthogonalLoop=1;jettySize=auto;html=1;entryX=0;entryY=0.75;entryDx=0;entryDy=0;fillColor=#fff2cc;strokeColor=#d6b656;" parent="1" source="H48hmFiYQyoYzxlyVc5z-6" target="H48hmFiYQyoYzxlyVc5z-19" edge="1">
          <mxGeometry relative="1" as="geometry" />
        </mxCell>
        <mxCell id="H48hmFiYQyoYzxlyVc5z-31" style="edgeStyle=orthogonalEdgeStyle;rounded=0;orthogonalLoop=1;jettySize=auto;html=1;entryX=0.75;entryY=0;entryDx=0;entryDy=0;fillColor=#fff2cc;strokeColor=#d6b656;" parent="1" source="H48hmFiYQyoYzxlyVc5z-6" target="H48hmFiYQyoYzxlyVc5z-28" edge="1">
          <mxGeometry relative="1" as="geometry" />
        </mxCell>
        <mxCell id="H48hmFiYQyoYzxlyVc5z-40" style="edgeStyle=orthogonalEdgeStyle;rounded=0;orthogonalLoop=1;jettySize=auto;html=1;fillColor=#fff2cc;strokeColor=#d6b656;" parent="1" source="H48hmFiYQyoYzxlyVc5z-6" target="H48hmFiYQyoYzxlyVc5z-2" edge="1">
          <mxGeometry relative="1" as="geometry">
            <Array as="points">
              <mxPoint x="500" y="170" />
              <mxPoint x="410" y="170" />
            </Array>
          </mxGeometry>
        </mxCell>
        <mxCell id="H48hmFiYQyoYzxlyVc5z-6" value="&#xa;P1.2: Booking Management&#xa;&#xa;" style="ellipse;whiteSpace=wrap;html=1;aspect=fixed;fillColor=#dae8fc;strokeColor=#6c8ebf;fontStyle=1" parent="1" vertex="1">
          <mxGeometry x="435" y="210" width="80" height="80" as="geometry" />
        </mxCell>
        <mxCell id="H48hmFiYQyoYzxlyVc5z-57" style="edgeStyle=orthogonalEdgeStyle;rounded=0;orthogonalLoop=1;jettySize=auto;html=1;entryX=1;entryY=0.5;entryDx=0;entryDy=0;fillColor=#fff2cc;strokeColor=#d6b656;" parent="1" source="H48hmFiYQyoYzxlyVc5z-7" target="H48hmFiYQyoYzxlyVc5z-54" edge="1">
          <mxGeometry relative="1" as="geometry">
            <Array as="points">
              <mxPoint x="300" y="305" />
            </Array>
          </mxGeometry>
        </mxCell>
        <mxCell id="H48hmFiYQyoYzxlyVc5z-63" style="edgeStyle=orthogonalEdgeStyle;rounded=0;orthogonalLoop=1;jettySize=auto;html=1;entryX=1;entryY=0.5;entryDx=0;entryDy=0;fillColor=#fff2cc;strokeColor=#d6b656;" parent="1" source="H48hmFiYQyoYzxlyVc5z-7" target="H48hmFiYQyoYzxlyVc5z-61" edge="1">
          <mxGeometry relative="1" as="geometry">
            <Array as="points">
              <mxPoint x="190" y="220" />
            </Array>
          </mxGeometry>
        </mxCell>
        <mxCell id="H48hmFiYQyoYzxlyVc5z-7" value="&#xa;P1.4: Payment Handling&#xa;&#xa;" style="ellipse;whiteSpace=wrap;html=1;aspect=fixed;fillColor=#dae8fc;strokeColor=#6c8ebf;fontStyle=1" parent="1" vertex="1">
          <mxGeometry x="260" y="170" width="80" height="80" as="geometry" />
        </mxCell>
        <mxCell id="H48hmFiYQyoYzxlyVc5z-11" value="" style="endArrow=none;html=1;rounded=0;fontColor=#66FF66;strokeColor=#66FF66;" parent="1" edge="1">
          <mxGeometry width="50" height="50" relative="1" as="geometry">
            <mxPoint x="570" y="150" as="sourcePoint" />
            <mxPoint x="670" y="150" as="targetPoint" />
          </mxGeometry>
        </mxCell>
        <mxCell id="H48hmFiYQyoYzxlyVc5z-12" value="" style="endArrow=none;html=1;rounded=0;fontColor=#66FF66;strokeColor=#66FF66;" parent="1" edge="1">
          <mxGeometry width="50" height="50" relative="1" as="geometry">
            <mxPoint x="570" y="180" as="sourcePoint" />
            <mxPoint x="670" y="180" as="targetPoint" />
            <Array as="points">
              <mxPoint x="615" y="180" />
            </Array>
          </mxGeometry>
        </mxCell>
        <mxCell id="H48hmFiYQyoYzxlyVc5z-14" value="&lt;span style=&quot;font-family: monospace; font-size: 0px; text-align: start; text-wrap-mode: nowrap;&quot;&gt;%3CmxGraphModel%3E%3Croot%3E%3CmxCell%20id%3D%220%22%2F%3E%3CmxCell%20id%3D%221%22%20parent%3D%220%22%2F%3E%3CmxCell%20id%3D%222%22%20value%3D%22%22%20style%3D%22endArrow%3Dnone%3Bhtml%3D1%3Brounded%3D0%3B%22%20edge%3D%221%22%20parent%3D%221%22%3E%3CmxGeometry%20width%3D%2250%22%20height%3D%2250%22%20relative%3D%221%22%20as%3D%22geometry%22%3E%3CmxPoint%20x%3D%22585%22%20y%3D%22170%22%20as%3D%22sourcePoint%22%2F%3E%3CmxPoint%20x%3D%22685%22%20y%3D%22170%22%20as%3D%22targetPoint%22%2F%3E%3C%2FmxGeometry%3E%3C%2FmxCell%3E%3C%2Froot%3E%3C%2FmxGraphModel%3E&lt;/span&gt; User Data" style="text;html=1;align=center;verticalAlign=middle;whiteSpace=wrap;rounded=0;fontColor=#66FF66;strokeColor=#66FF66;strokeWidth=0;" parent="1" vertex="1">
          <mxGeometry x="585" y="150" width="60" height="30" as="geometry" />
        </mxCell>
        <mxCell id="H48hmFiYQyoYzxlyVc5z-15" style="edgeStyle=orthogonalEdgeStyle;rounded=0;orthogonalLoop=1;jettySize=auto;html=1;entryX=1.023;entryY=0.65;entryDx=0;entryDy=0;entryPerimeter=0;fillColor=#fff2cc;strokeColor=#d6b656;" parent="1" source="H48hmFiYQyoYzxlyVc5z-14" target="H48hmFiYQyoYzxlyVc5z-3" edge="1">
          <mxGeometry relative="1" as="geometry">
            <Array as="points">
              <mxPoint x="615" y="110" />
              <mxPoint x="667" y="110" />
            </Array>
          </mxGeometry>
        </mxCell>
        <mxCell id="H48hmFiYQyoYzxlyVc5z-17" value="" style="endArrow=none;html=1;rounded=0;fontColor=#66FF66;strokeColor=#66FF66;" parent="1" edge="1">
          <mxGeometry width="50" height="50" relative="1" as="geometry">
            <mxPoint x="520" y="300" as="sourcePoint" />
            <mxPoint x="585" y="300" as="targetPoint" />
          </mxGeometry>
        </mxCell>
        <mxCell id="H48hmFiYQyoYzxlyVc5z-18" value="" style="endArrow=none;html=1;rounded=0;fontColor=#66FF66;strokeColor=#66FF66;" parent="1" edge="1">
          <mxGeometry width="50" height="50" relative="1" as="geometry">
            <mxPoint x="520" y="330" as="sourcePoint" />
            <mxPoint x="585" y="330" as="targetPoint" />
          </mxGeometry>
        </mxCell>
        <mxCell id="H48hmFiYQyoYzxlyVc5z-19" value="Booking Data" style="text;html=1;align=center;verticalAlign=middle;whiteSpace=wrap;rounded=0;strokeWidth=0;fontColor=#66FF66;strokeColor=#66FF66;" parent="1" vertex="1">
          <mxGeometry x="525" y="300" width="60" height="30" as="geometry" />
        </mxCell>
        <mxCell id="H48hmFiYQyoYzxlyVc5z-21" style="edgeStyle=orthogonalEdgeStyle;rounded=0;orthogonalLoop=1;jettySize=auto;html=1;entryX=1.014;entryY=0.602;entryDx=0;entryDy=0;entryPerimeter=0;fillColor=#fff2cc;strokeColor=#d6b656;" parent="1" source="H48hmFiYQyoYzxlyVc5z-19" target="H48hmFiYQyoYzxlyVc5z-6" edge="1">
          <mxGeometry relative="1" as="geometry" />
        </mxCell>
        <mxCell id="H48hmFiYQyoYzxlyVc5z-26" value="" style="endArrow=none;html=1;rounded=0;fontColor=#66FF66;strokeColor=#66FF66;" parent="1" edge="1">
          <mxGeometry width="50" height="50" relative="1" as="geometry">
            <mxPoint x="645" y="260" as="sourcePoint" />
            <mxPoint x="710" y="260" as="targetPoint" />
          </mxGeometry>
        </mxCell>
        <mxCell id="H48hmFiYQyoYzxlyVc5z-27" value="" style="endArrow=none;html=1;rounded=0;fontColor=#66FF66;strokeColor=#66FF66;" parent="1" edge="1">
          <mxGeometry width="50" height="50" relative="1" as="geometry">
            <mxPoint x="645" y="290" as="sourcePoint" />
            <mxPoint x="710" y="290" as="targetPoint" />
          </mxGeometry>
        </mxCell>
        <mxCell id="H48hmFiYQyoYzxlyVc5z-28" value="&amp;nbsp;Accommodation Details" style="text;html=1;align=center;verticalAlign=middle;whiteSpace=wrap;rounded=0;strokeWidth=0;fontColor=#66FF66;strokeColor=#66FF66;" parent="1" vertex="1">
          <mxGeometry x="640" y="260" width="60" height="30" as="geometry" />
        </mxCell>
        <mxCell id="H48hmFiYQyoYzxlyVc5z-30" style="edgeStyle=orthogonalEdgeStyle;rounded=0;orthogonalLoop=1;jettySize=auto;html=1;entryX=0.997;entryY=0.356;entryDx=0;entryDy=0;entryPerimeter=0;fillColor=#fff2cc;strokeColor=#d6b656;" parent="1" source="H48hmFiYQyoYzxlyVc5z-28" target="H48hmFiYQyoYzxlyVc5z-6" edge="1">
          <mxGeometry relative="1" as="geometry" />
        </mxCell>
        <mxCell id="H48hmFiYQyoYzxlyVc5z-33" value="" style="endArrow=none;html=1;rounded=0;fontColor=#66FF66;strokeColor=#66FF66;" parent="1" edge="1">
          <mxGeometry width="50" height="50" relative="1" as="geometry">
            <mxPoint x="370" y="280" as="sourcePoint" />
            <mxPoint x="435" y="280" as="targetPoint" />
          </mxGeometry>
        </mxCell>
        <mxCell id="H48hmFiYQyoYzxlyVc5z-34" value="" style="endArrow=none;html=1;rounded=0;fontColor=#66FF66;strokeColor=#66FF66;" parent="1" edge="1">
          <mxGeometry width="50" height="50" relative="1" as="geometry">
            <mxPoint x="370" y="310" as="sourcePoint" />
            <mxPoint x="435" y="310" as="targetPoint" />
          </mxGeometry>
        </mxCell>
        <mxCell id="H48hmFiYQyoYzxlyVc5z-35" value="Transport Details" style="text;html=1;align=center;verticalAlign=middle;whiteSpace=wrap;rounded=0;strokeWidth=0;fontColor=#66FF66;strokeColor=#66FF66;" parent="1" vertex="1">
          <mxGeometry x="320" y="310" width="60" height="30" as="geometry" />
        </mxCell>
        <mxCell id="H48hmFiYQyoYzxlyVc5z-37" style="edgeStyle=orthogonalEdgeStyle;rounded=0;orthogonalLoop=1;jettySize=auto;html=1;entryX=-0.012;entryY=0.348;entryDx=0;entryDy=0;entryPerimeter=0;fillColor=#fff2cc;strokeColor=#d6b656;" parent="1" source="H48hmFiYQyoYzxlyVc5z-35" target="H48hmFiYQyoYzxlyVc5z-6" edge="1">
          <mxGeometry relative="1" as="geometry" />
        </mxCell>
        <mxCell id="H48hmFiYQyoYzxlyVc5z-38" style="edgeStyle=orthogonalEdgeStyle;rounded=0;orthogonalLoop=1;jettySize=auto;html=1;entryX=0.335;entryY=-0.061;entryDx=0;entryDy=0;entryPerimeter=0;fillColor=#fff2cc;strokeColor=#d6b656;" parent="1" source="H48hmFiYQyoYzxlyVc5z-6" target="H48hmFiYQyoYzxlyVc5z-35" edge="1">
          <mxGeometry relative="1" as="geometry" />
        </mxCell>
        <mxCell id="H48hmFiYQyoYzxlyVc5z-42" style="edgeStyle=orthogonalEdgeStyle;rounded=0;orthogonalLoop=1;jettySize=auto;html=1;entryX=0;entryY=0.5;entryDx=0;entryDy=0;fillColor=#fff2cc;strokeColor=#d6b656;" parent="1" source="H48hmFiYQyoYzxlyVc5z-41" target="H48hmFiYQyoYzxlyVc5z-2" edge="1">
          <mxGeometry relative="1" as="geometry" />
        </mxCell>
        <mxCell id="H48hmFiYQyoYzxlyVc5z-41" value="Accommodation Provider" style="whiteSpace=wrap;html=1;aspect=fixed;fillColor=#dae8fc;strokeColor=#6c8ebf;fontStyle=1" parent="1" vertex="1">
          <mxGeometry x="210" y="70" width="80" height="80" as="geometry" />
        </mxCell>
        <mxCell id="HUWv6nAgPmBTQmqejDX9-1" value="" style="edgeStyle=orthogonalEdgeStyle;rounded=0;orthogonalLoop=1;jettySize=auto;html=1;fillColor=#fff2cc;strokeColor=#d6b656;" edge="1" parent="1" source="H48hmFiYQyoYzxlyVc5z-44" target="H48hmFiYQyoYzxlyVc5z-3">
          <mxGeometry relative="1" as="geometry" />
        </mxCell>
        <mxCell id="H48hmFiYQyoYzxlyVc5z-44" value="&#xa;Transport Provider&#xa;&#xa;" style="whiteSpace=wrap;html=1;aspect=fixed;fillColor=#dae8fc;strokeColor=#6c8ebf;fontStyle=1" parent="1" vertex="1">
          <mxGeometry x="470" y="-40" width="70" height="70" as="geometry" />
        </mxCell>
        <mxCell id="H48hmFiYQyoYzxlyVc5z-45" style="edgeStyle=orthogonalEdgeStyle;rounded=0;orthogonalLoop=1;jettySize=auto;html=1;entryX=0.375;entryY=0;entryDx=0;entryDy=0;entryPerimeter=0;fillColor=#fff2cc;strokeColor=#d6b656;" parent="1" source="H48hmFiYQyoYzxlyVc5z-44" target="H48hmFiYQyoYzxlyVc5z-2" edge="1">
          <mxGeometry relative="1" as="geometry" />
        </mxCell>
        <mxCell id="H48hmFiYQyoYzxlyVc5z-47" value="" style="endArrow=none;html=1;rounded=0;fontColor=#66FF66;strokeColor=#66FF66;" parent="1" edge="1">
          <mxGeometry width="50" height="50" relative="1" as="geometry">
            <mxPoint x="740" y="180" as="sourcePoint" />
            <mxPoint x="805" y="180" as="targetPoint" />
          </mxGeometry>
        </mxCell>
        <mxCell id="H48hmFiYQyoYzxlyVc5z-48" value="" style="endArrow=none;html=1;rounded=0;fontColor=#66FF66;strokeColor=#66FF66;" parent="1" edge="1">
          <mxGeometry width="50" height="50" relative="1" as="geometry">
            <mxPoint x="740" y="210" as="sourcePoint" />
            <mxPoint x="805" y="210" as="targetPoint" />
          </mxGeometry>
        </mxCell>
        <mxCell id="H48hmFiYQyoYzxlyVc5z-49" value="&amp;nbsp;Activity &amp;amp; Tour Data" style="text;html=1;align=center;verticalAlign=middle;whiteSpace=wrap;rounded=0;strokeWidth=0;fontColor=#66FF66;strokeColor=#66FF66;" parent="1" vertex="1">
          <mxGeometry x="740" y="180" width="60" height="30" as="geometry" />
        </mxCell>
        <mxCell id="H48hmFiYQyoYzxlyVc5z-50" style="edgeStyle=orthogonalEdgeStyle;rounded=0;orthogonalLoop=1;jettySize=auto;html=1;entryX=0.182;entryY=0.914;entryDx=0;entryDy=0;entryPerimeter=0;fillColor=#fff2cc;strokeColor=#d6b656;" parent="1" source="H48hmFiYQyoYzxlyVc5z-49" target="H48hmFiYQyoYzxlyVc5z-5" edge="1">
          <mxGeometry relative="1" as="geometry" />
        </mxCell>
        <mxCell id="H48hmFiYQyoYzxlyVc5z-52" value="" style="endArrow=none;html=1;rounded=0;fontColor=#66FF66;strokeColor=#66FF66;" parent="1" edge="1">
          <mxGeometry width="50" height="50" relative="1" as="geometry">
            <mxPoint x="920" y="560" as="sourcePoint" />
            <mxPoint x="985" y="560" as="targetPoint" />
          </mxGeometry>
        </mxCell>
        <mxCell id="H48hmFiYQyoYzxlyVc5z-53" value="" style="endArrow=none;html=1;rounded=0;fontColor=#66FF66;strokeColor=#66FF66;" parent="1" edge="1">
          <mxGeometry width="50" height="50" relative="1" as="geometry">
            <mxPoint x="920" y="585.29" as="sourcePoint" />
            <mxPoint x="985" y="585.29" as="targetPoint" />
          </mxGeometry>
        </mxCell>
        <mxCell id="H48hmFiYQyoYzxlyVc5z-55" style="edgeStyle=orthogonalEdgeStyle;rounded=0;orthogonalLoop=1;jettySize=auto;html=1;fillColor=#fff2cc;strokeColor=#d6b656;" parent="1" source="H48hmFiYQyoYzxlyVc5z-54" target="H48hmFiYQyoYzxlyVc5z-7" edge="1">
          <mxGeometry relative="1" as="geometry">
            <Array as="points">
              <mxPoint x="230" y="240" />
            </Array>
          </mxGeometry>
        </mxCell>
        <mxCell id="H48hmFiYQyoYzxlyVc5z-54" value="&amp;nbsp;Payment Records" style="text;html=1;align=center;verticalAlign=middle;whiteSpace=wrap;rounded=0;strokeWidth=0;fontColor=#66FF66;strokeColor=#66FF66;" parent="1" vertex="1">
          <mxGeometry x="200" y="290" width="60" height="30" as="geometry" />
        </mxCell>
        <mxCell id="H48hmFiYQyoYzxlyVc5z-58" value="" style="endArrow=none;html=1;rounded=0;fontColor=#66FF66;strokeColor=#66FF66;" parent="1" edge="1">
          <mxGeometry width="50" height="50" relative="1" as="geometry">
            <mxPoint x="200" y="290" as="sourcePoint" />
            <mxPoint x="265" y="290" as="targetPoint" />
          </mxGeometry>
        </mxCell>
        <mxCell id="H48hmFiYQyoYzxlyVc5z-59" value="" style="endArrow=none;html=1;rounded=0;fontColor=#66FF66;strokeColor=#66FF66;" parent="1" edge="1">
          <mxGeometry width="50" height="50" relative="1" as="geometry">
            <mxPoint x="197.5" y="320" as="sourcePoint" />
            <mxPoint x="262.5" y="320" as="targetPoint" />
          </mxGeometry>
        </mxCell>
        <mxCell id="H48hmFiYQyoYzxlyVc5z-62" style="edgeStyle=orthogonalEdgeStyle;rounded=0;orthogonalLoop=1;jettySize=auto;html=1;entryX=0;entryY=0.5;entryDx=0;entryDy=0;fillColor=#fff2cc;strokeColor=#d6b656;" parent="1" source="H48hmFiYQyoYzxlyVc5z-61" target="H48hmFiYQyoYzxlyVc5z-7" edge="1">
          <mxGeometry relative="1" as="geometry">
            <Array as="points">
              <mxPoint x="250" y="200" />
              <mxPoint x="250" y="210" />
            </Array>
          </mxGeometry>
        </mxCell>
        <mxCell id="H48hmFiYQyoYzxlyVc5z-61" value="&lt;b&gt;Payment Gateway&lt;/b&gt;" style="whiteSpace=wrap;html=1;aspect=fixed;fillColor=#dae8fc;strokeColor=#6c8ebf;" parent="1" vertex="1">
          <mxGeometry x="110" y="170" width="80" height="80" as="geometry" />
        </mxCell>
        <mxCell id="H48hmFiYQyoYzxlyVc5z-64" value="" style="endArrow=none;html=1;rounded=0;fontColor=#66FF66;strokeColor=#66FF66;" parent="1" edge="1">
          <mxGeometry width="50" height="50" relative="1" as="geometry">
            <mxPoint x="430" y="-80" as="sourcePoint" />
            <mxPoint x="530" y="-80" as="targetPoint" />
          </mxGeometry>
        </mxCell>
        <mxCell id="H48hmFiYQyoYzxlyVc5z-65" value="" style="endArrow=none;html=1;rounded=0;fontColor=#66FF66;strokeColor=#66FF66;" parent="1" edge="1">
          <mxGeometry width="50" height="50" relative="1" as="geometry">
            <mxPoint x="430" y="-60" as="sourcePoint" />
            <mxPoint x="530" y="-60" as="targetPoint" />
            <Array as="points">
              <mxPoint x="475" y="-60" />
              <mxPoint x="505" y="-60" />
            </Array>
          </mxGeometry>
        </mxCell>
        <mxCell id="H48hmFiYQyoYzxlyVc5z-66" value="&amp;nbsp;Reviews" style="text;html=1;align=center;verticalAlign=middle;whiteSpace=wrap;rounded=0;fontColor=#66FF66;strokeColor=#66FF66;strokeWidth=0;" parent="1" vertex="1">
          <mxGeometry x="435" y="-80" width="90" height="20" as="geometry" />
        </mxCell>
        <mxCell id="H48hmFiYQyoYzxlyVc5z-68" style="edgeStyle=orthogonalEdgeStyle;rounded=0;orthogonalLoop=1;jettySize=auto;html=1;entryX=0.438;entryY=1;entryDx=0;entryDy=0;entryPerimeter=0;fillColor=#fff2cc;strokeColor=#d6b656;" parent="1" edge="1">
          <mxGeometry relative="1" as="geometry">
            <mxPoint x="435" y="-60" as="sourcePoint" />
            <mxPoint x="265.03999999999996" y="-70" as="targetPoint" />
          </mxGeometry>
        </mxCell>
        <mxCell id="HUWv6nAgPmBTQmqejDX9-3" value="" style="edgeStyle=orthogonalEdgeStyle;rounded=0;orthogonalLoop=1;jettySize=auto;html=1;entryX=0;entryY=0.5;entryDx=0;entryDy=0;fillColor=#fff2cc;strokeColor=#d6b656;" edge="1" parent="1" source="H48hmFiYQyoYzxlyVc5z-3" target="HUWv6nAgPmBTQmqejDX9-2">
          <mxGeometry relative="1" as="geometry">
            <mxPoint x="625" y="70" as="sourcePoint" />
            <mxPoint x="585" y="165" as="targetPoint" />
          </mxGeometry>
        </mxCell>
        <mxCell id="HUWv6nAgPmBTQmqejDX9-4" style="edgeStyle=orthogonalEdgeStyle;rounded=0;orthogonalLoop=1;jettySize=auto;html=1;entryX=0;entryY=0.5;entryDx=0;entryDy=0;fillColor=#fff2cc;strokeColor=#d6b656;" edge="1" parent="1" source="HUWv6nAgPmBTQmqejDX9-2" target="H48hmFiYQyoYzxlyVc5z-5">
          <mxGeometry relative="1" as="geometry" />
        </mxCell>
        <mxCell id="HUWv6nAgPmBTQmqejDX9-2" value="User" style="whiteSpace=wrap;html=1;aspect=fixed;fillColor=#dae8fc;strokeColor=#6c8ebf;" vertex="1" parent="1">
          <mxGeometry x="480" y="100" width="60" height="60" as="geometry" />
        </mxCell>
        <mxCell id="HUWv6nAgPmBTQmqejDX9-6" style="edgeStyle=orthogonalEdgeStyle;rounded=0;orthogonalLoop=1;jettySize=auto;html=1;fillColor=#fff2cc;strokeColor=#d6b656;exitX=0;exitY=0;exitDx=0;exitDy=0;" edge="1" parent="1" source="HUWv6nAgPmBTQmqejDX9-2">
          <mxGeometry relative="1" as="geometry">
            <mxPoint x="480" y="50" as="sourcePoint" />
            <mxPoint x="260" y="-60" as="targetPoint" />
          </mxGeometry>
        </mxCell>
      </root>
    </mxGraphModel>
  </diagram>
</mxfile>
